<?xml version="1.0" ?><!-- Uploaded to: SVG Repo, www.svgrepo.com, Generator: SVG Repo Mixer Tools -->
<svg width="800px" height="800px" viewBox="0 0 128 128" data-name="Layer 2" id="Layer_2" xmlns="http://www.w3.org/2000/svg"><defs><style>.cls-1{fill:#553f07;}.cls-2{fill:#c4e8f4;}.cls-3{fill:#266882;}.cls-4{fill:#f5fbfd;}.cls-5{fill:#8b7847;}.cls-6{fill:#ffffff;}.cls-7{fill:#616834;}</style></defs><title/><rect class="cls-1" height="36.66" width="93.06" x="18.17" y="82.29"/><path class="cls-2" d="M98.39,59.73H30.79l-13.2,21.6.18,1a6.26,6.26,0,0,1,1,3.45V87.6a1.6,1.6,0,1,0,3.2,0V86.42a1.16,1.16,0,0,1,2.31,0v4.72a1.79,1.79,0,1,0,3.58,0V84.81a1.12,1.12,0,1,1,2.24,0v1.65a1.48,1.48,0,0,0,1.48,1.48h.17a1.48,1.48,0,0,0,1.48-1.48v-1a1.83,1.83,0,0,1,3.65,0v6.41a1.76,1.76,0,0,0,3.51,0L39.28,86.9a1.52,1.52,0,1,1,3-.34v1.75a1.49,1.49,0,1,0,3,0V85a1.49,1.49,0,0,1,1.49-1.49h.32A2.12,2.12,0,0,0,49,82.29H83.09l2.77,2a1.83,1.83,0,0,0,1,.34,1.81,1.81,0,0,1,1.81,1.8v2.49a2.27,2.27,0,0,0,4.54,0V85.22a2.09,2.09,0,0,1,2.09-2.09V85a1.9,1.9,0,0,0,1.9,1.9h.08a1.9,1.9,0,0,0,1.9-1.9,1.46,1.46,0,0,1,2.91,0v4.55a1.9,1.9,0,1,0,3.8,0V84.86h2.9v1.85a1.79,1.79,0,0,0,1.79,1.79h0a1.79,1.79,0,0,0,1.78-1.79V81.22Z"/><polygon class="cls-3" points="99.7 61.73 29.56 61.73 28.7 63.14 100.62 63.14 99.7 61.73"/><polygon class="cls-3" points="102.56 66.11 26.89 66.11 26.02 67.52 103.48 67.52 102.56 66.11"/><polygon class="cls-3" points="105.42 70.5 24.21 70.5 23.34 71.91 106.33 71.91 105.42 70.5"/><path class="cls-4" d="M98.39,59.73c-6.51,0-10.39,10.35-16.3,10.44s-6.37-5.72-11.54-5.82-9.79-4.62-9.79-4.62H44.83s1.06,5-2.82,7.09-8.4.49-10.25,4.55S24.54,75.89,22,74.1l-4.42,7.23.18,1a6.26,6.26,0,0,1,1,3.45V87.6a1.6,1.6,0,1,0,3.2,0V86.42a1.16,1.16,0,0,1,2.31,0v4.72a1.79,1.79,0,1,0,3.58,0V84.81a1.12,1.12,0,1,1,2.24,0v1.65a1.48,1.48,0,0,0,1.48,1.48h.17a1.48,1.48,0,0,0,1.48-1.48v-1a1.83,1.83,0,0,1,3.65,0v6.41a1.76,1.76,0,0,0,3.51,0L39.28,86.9a1.52,1.52,0,1,1,3-.34v1.75a1.49,1.49,0,1,0,3,0V85a1.49,1.49,0,0,1,1.49-1.49h.32A2.12,2.12,0,0,0,49,82.29H83.09l2.77,2a1.83,1.83,0,0,0,1,.34,1.81,1.81,0,0,1,1.81,1.8v2.49a2.27,2.27,0,0,0,4.54,0V85.22a2.09,2.09,0,0,1,2.09-2.09V85a1.9,1.9,0,0,0,1.9,1.9h.08a1.9,1.9,0,0,0,1.9-1.9,1.46,1.46,0,0,1,2.91,0v4.55a1.9,1.9,0,1,0,3.8,0V84.86h2.9v1.85a1.79,1.79,0,0,0,1.79,1.79h0a1.79,1.79,0,0,0,1.78-1.79V81.22Z"/><polygon class="cls-5" points="81.63 118.95 49.19 118.95 49.19 82.3 65.41 66.82 81.63 82.3 81.63 118.95"/><polygon class="cls-6" points="49.22 82.29 45.73 82.29 65.43 62.87 85.09 82.29 81.65 82.29 65.43 66.81 49.22 82.29"/><path class="cls-1" d="M62.24,92.88H68.3a7.39,7.39,0,0,1,7.39,7.39V119a0,0,0,0,1,0,0H54.85a0,0,0,0,1,0,0V100.27a7.39,7.39,0,0,1,7.39-7.39Z"/><rect class="cls-2" height="11.13" width="8.16" x="61.08" y="76.67"/><polygon class="cls-5" points="69.23 81.58 65.86 81.58 65.86 76.67 64.45 76.67 64.45 81.58 61.08 81.58 61.08 82.99 64.45 82.99 64.45 87.79 65.86 87.79 65.86 82.99 69.23 82.99 69.23 81.58"/><rect class="cls-2" height="11.13" width="8.16" x="86.31" y="96.9"/><polygon class="cls-1" points="94.47 101.81 91.09 101.81 91.09 96.89 89.68 96.89 89.68 101.81 86.31 101.81 86.31 103.22 89.68 103.22 89.68 108.02 91.09 108.02 91.09 103.22 94.47 103.22 94.47 101.81"/><rect class="cls-2" height="11.13" width="8.16" x="98.18" y="96.9"/><polygon class="cls-1" points="106.33 101.81 102.96 101.81 102.96 96.89 101.55 96.89 101.55 101.81 98.18 101.81 98.18 103.22 101.55 103.22 101.55 108.02 102.96 108.02 102.96 103.22 106.33 103.22 106.33 101.81"/><rect class="cls-2" height="11.13" width="8.16" x="23.82" y="96.9"/><polygon class="cls-1" points="31.98 101.81 28.6 101.81 28.6 96.89 27.19 96.89 27.19 101.81 23.82 101.81 23.82 103.22 27.19 103.22 27.19 108.02 28.6 108.02 28.6 103.22 31.98 103.22 31.98 101.81"/><rect class="cls-2" height="11.13" width="8.16" x="35.69" y="96.9"/><polygon class="cls-1" points="43.84 101.81 40.47 101.81 40.47 96.89 39.06 96.89 39.06 101.81 35.69 101.81 35.69 103.22 39.06 103.22 39.06 108.02 40.47 108.02 40.47 103.22 43.84 103.22 43.84 101.81"/><path class="cls-7" d="M65.5,96.64a6.62,6.62,0,1,0,6.62,6.62A6.62,6.62,0,0,0,65.5,96.64Zm0,10.1A3.49,3.49,0,1,1,69,103.26,3.48,3.48,0,0,1,65.5,106.74Z"/><circle class="cls-2" cx="15.65" cy="23.81" r="3.53"/><circle class="cls-2" cx="87.83" cy="35.4" r="3.53"/><circle class="cls-2" cx="49.19" cy="27.34" r="3.53"/><circle class="cls-2" cx="112.35" cy="114.59" r="3.53"/><circle class="cls-2" cx="89.89" cy="74.17" r="3.53"/><circle class="cls-2" cx="19.45" cy="112.52" r="3.53"/><circle class="cls-2" cx="38.43" cy="48.9" r="2.13"/><circle class="cls-2" cx="75.68" cy="51.03" r="2.13"/><circle class="cls-2" cx="105.88" cy="22.5" r="2.13"/></svg>