<?xml version="1.0" encoding="iso-8859-1"?>
<!-- Uploaded to: SVG Repo, www.svgrepo.com, Generator: SVG Repo Mixer Tools -->
<svg height="800px" width="800px" version="1.1" id="Layer_1" xmlns="http://www.w3.org/2000/svg" xmlns:xlink="http://www.w3.org/1999/xlink" 
	 viewBox="0 0 512 512" xml:space="preserve">
<path style="fill:#C13421;" d="M442.634,193.054v174.769c0,40.74-33.333,74.073-74.077,74.073H143.445
	c-40.742,0-74.072-33.332-74.072-74.073V193.054 M442.634,193.054c0,25.194-83.554,45.617-186.633,45.617
	c-103.073,0-186.627-20.424-186.627-45.617"/>
<path style="fill:#FF4328;" d="M364.402,205.478v127.202c0,35.873-28.761,64.955-64.241,64.955h-85.654
	c-35.48,0-64.241-29.081-64.241-64.955V205.478H364.402z"/>
<path style="fill:#97BAA8;" d="M443.114,193.949c0,25.235-83.175,45.691-185.776,45.691c-102.602,0-185.776-20.456-185.776-45.691
	s83.175-45.691,185.776-45.691S443.114,168.714,443.114,193.949z"/>
<path style="fill:#981700;" d="M443.11,193.949c0,5.791-4.393,11.331-12.385,16.43c-26.833-17.115-94.34-29.259-173.388-29.259
	c-79.051,0-146.561,12.145-173.391,29.261c-7.995-5.099-12.389-10.64-12.389-16.432c0-25.235,83.175-45.691,185.776-45.691
	S443.11,168.714,443.11,193.949z"/>
<path d="M483.227,237.651h-31.981v-44.598c0-1.418-0.349-2.753-0.956-3.932c-2.827-15.303-23.172-27.712-60.612-36.92
	c-24.803-6.1-55.215-10.297-88.312-12.296c-1.448-10.667-5.039-20.856-10.222-28.655c-7.032-10.578-10.081-26.431-7.588-39.449
	c0.9-4.697-2.136-9.241-6.781-10.149c-4.644-0.91-9.138,2.16-10.038,6.856c-3.35,17.486,0.65,38.056,10.188,52.404
	c3.439,5.175,5.766,11.539,6.984,18.152c-9.08-0.328-18.315-0.495-27.652-0.495c-2.7,0-5.39,0.017-8.073,0.045
	c-1.556-10.196-5.072-19.879-10.048-27.364c-7.031-10.569-10.079-26.422-7.586-39.448c0.899-4.696-2.138-9.239-6.782-10.148
	c-4.651-0.911-9.138,2.162-10.037,6.857c-3.348,17.495,0.652,38.065,10.189,52.403c3.426,5.154,5.748,11.489,6.97,18.075
	c-40.708,1.346-78.391,5.917-108.054,13.213c-36.443,8.964-56.695,20.958-60.355,35.704c-1.075,1.437-1.72,3.215-1.72,5.149v44.598
	H28.779C12.91,237.651,0,250.56,0,266.426s12.91,28.774,28.779,28.774h31.983v72.62c0,45.593,37.091,82.686,82.683,82.686h225.111
	c45.594,0,82.689-37.092,82.689-82.686v-72.62h31.981c15.865,0,28.773-12.909,28.773-28.775
	C512,250.559,499.092,237.651,483.227,237.651z M60.762,277.978H28.779c-6.372,0-11.555-5.182-11.555-11.552
	s5.183-11.551,11.555-11.551h31.983V277.978z M256.261,188.656c63.553,0,122.068,8.106,154.268,20.788
	c-6.433,2.483-14.502,5.031-24.602,7.5c-34.6,8.458-80.742,13.115-129.926,13.115c-49.182,0-95.321-4.658-129.922-13.115
	c-9.961-2.435-17.951-4.947-24.341-7.398C133.884,196.806,192.537,188.656,256.261,188.656z M433.421,192.873
	c0,1.354-1.195,3.538-4.295,6.174c-25.589-13.631-73.907-23.252-130.877-26.451c1.839-4.839,2.986-10.054,3.503-15.413
	c31.49,1.964,60.324,5.968,83.812,11.744C420.677,177.563,433.421,187.979,433.421,192.873z M284.545,156.324
	c-0.687,5.907-2.353,11.312-5.002,15.467c-7.652-0.233-15.418-0.358-23.282-0.358c-3.556,0-7.086,0.032-10.602,0.08
	c1.751-4.939,2.788-10.25,3.204-15.68c2.458-0.024,4.921-0.039,7.394-0.039C265.824,155.793,275.272,155.974,284.545,156.324z
	 M126.95,168.926c28.57-7.026,65.051-11.431,104.604-12.728c-0.69,6.064-2.407,11.609-5.161,15.822
	c-62.203,2.445-115.622,12.438-143.004,27.029c-3.101-2.635-4.297-4.822-4.297-6.176C79.093,187.979,91.838,177.563,126.95,168.926z
	 M434.022,367.822c0,36.095-29.367,65.462-65.465,65.462H143.445c-36.094,0-65.46-29.366-65.46-65.462V217.205
	c10.189,6.292,24.879,11.796,44.004,16.47c35.898,8.774,83.492,13.608,134.011,13.608c50.521,0,98.116-4.832,134.015-13.608
	c19.127-4.675,33.815-10.179,44.005-16.47V367.822z M483.227,277.978h-31.981v-23.103h31.981c6.368,0,11.55,5.182,11.55,11.552
	C494.776,272.796,489.595,277.978,483.227,277.978z"/>
</svg>